# xmcd
#
# Track frame offsets: 
#        150
#        16432
#        32057
#        48907
#        59577
#
# Disc length: 1231 seconds
#
# Revision: 3
# Processed by: cddbd v1.5.2PL0 Copyright (c) Steve Scherf et al.
# Submitted via: ExactAudioCopy v0.99pb5
#
DISCID=3c04cd05
DTITLE=The Lawyer - I Wanna Mmm...
DYEAR=1999
DGENRE=Euro-House
TTITLE0=I Wanna Mmm... (Successful Radio Version)
TTITLE1=I Wanna Mmm... (Foundation Edit)
TTITLE2=I Wanna Mmm... (Doug Laurent Edit)
TTITLE3=I Wanna Mmm... (Foundation Acapella)
TTITLE4=I Wanna Mmm... (Foundation Dub)
EXTD=
EXTT0=
EXTT1=
EXTT2=
EXTT3=
EXTT4=
PLAYORDER=
